<?xml version="1.0" encoding="utf-8"?><svg version="1.1" id="Layer_1" xmlns="http://www.w3.org/2000/svg" xmlns:xlink="http://www.w3.org/1999/xlink" x="0px" y="0px" viewBox="0 0 92.27 122.88" style="enable-background:new 0 0 92.27 122.88" xml:space="preserve"><style type="text/css">.st0{fill-rule:evenodd;clip-rule:evenodd;}</style><g><path class="st0" d="M47.49,116.85c6.31-4.01,11.98-8.87,16.92-14.29c10.73-11.75,17.97-26.11,20.87-40.2 c2.88-13.91,1.52-27.54-4.85-38.06c-1.81-3.02-4.08-5.78-6.78-8.26c-7.74-7.05-16.6-10.41-25.52-10.5 c-9.37-0.07-18.87,3.45-27.27,10.14c-3.58,2.86-6.53,6.15-8.82,9.78c-5.9,9.28-7.69,20.8-5.74,32.85 c1.97,12.23,7.78,25.02,17.04,36.61c6.44,8.08,14.54,15.58,24.18,21.91L47.49,116.85L47.49,116.85L47.49,116.85L47.49,116.85z M68.49,69.05h-2.32v4.5c0,1.57-1.28,2.85-2.85,2.85H60.4c-1.57,0-2.85-1.28-2.85-2.85v-4.5H34.64v4.5c0,1.57-1.28,2.85-2.85,2.85 h-2.91c-1.57,0-2.85-1.28-2.85-2.85v-4.5h-2.25v-35.7c0-3.29,1.92-5.68,5.78-7.17c3.74-1.46,8.51-2.2,16.57-2.2 s12.83,0.74,16.57,2.2c3.86,1.49,5.78,3.88,5.78,7.17V69.05L68.49,69.05L68.49,69.05z M35.43,60.63h21.41 c0.16,0,0.29,0.2,0.29,0.46v1.36c0,0.25-0.13,0.46-0.29,0.46H35.43c-0.16,0-0.29-0.2-0.29-0.46v-1.36 C35.15,60.83,35.28,60.63,35.43,60.63L35.43,60.63L35.43,60.63L35.43,60.63z M35.43,64.08h21.41c0.16,0,0.29,0.2,0.29,0.46v1.37 c0,0.25-0.13,0.46-0.29,0.46H35.43c-0.16,0-0.29-0.2-0.29-0.46v-1.37C35.15,64.29,35.28,64.08,35.43,64.08L35.43,64.08L35.43,64.08 z M27.52,33.54h16.41c0.46,0,0.83,0.38,0.83,0.84v12.19c0,0.46-0.38,0.83-0.83,0.83H27.52c-0.46,0-0.83-0.38-0.83-0.83v-12.2 C26.68,33.91,27.06,33.54,27.52,33.54L27.52,33.54L27.52,33.54L27.52,33.54z M48.28,33.54h16.41c0.46,0,0.84,0.38,0.84,0.84v12.19 c0,0.46-0.38,0.83-0.84,0.83H48.28c-0.46,0-0.83-0.38-0.83-0.83v-12.2C47.45,33.91,47.82,33.54,48.28,33.54L48.28,33.54 L48.28,33.54L48.28,33.54z M66.14,63.88c0-0.85-0.29-1.56-0.87-2.14c-0.58-0.58-1.31-0.87-2.14-0.87c-0.82,0-1.53,0.29-2.12,0.87 c-0.6,0.58-0.89,1.29-0.89,2.14c0,0.82,0.29,1.51,0.89,2.1c0.6,0.58,1.31,0.87,2.12,0.87c0.84,0,1.56-0.29,2.14-0.87 C65.85,65.39,66.14,64.7,66.14,63.88L66.14,63.88L66.14,63.88L66.14,63.88z M32.17,63.88c0-0.85-0.29-1.56-0.87-2.14 c-0.58-0.58-1.29-0.87-2.14-0.87c-0.83,0-1.56,0.29-2.14,0.87c-0.58,0.58-0.86,1.29-0.86,2.14c0,0.82,0.28,1.51,0.86,2.1 c0.58,0.58,1.31,0.87,2.14,0.87c0.85,0,1.56-0.29,2.14-0.87C31.87,65.39,32.17,64.7,32.17,63.88L32.17,63.88L32.17,63.88 L32.17,63.88z M68.52,106.27c-5.6,6.12-12.09,11.61-19.42,16.06c-0.88,0.66-2.13,0.75-3.13,0.11 c-10.8-6.87-19.85-15.13-26.99-24.09C9.15,86.02,2.94,72.34,0.83,59.16c-2.16-13.36-0.14-26.2,6.51-36.68 c2.63-4.13,5.97-7.89,10.07-11.14C26.78,3.88,37.51-0.07,48.17,0c10.28,0.09,20.42,3.9,29.22,11.93c3.09,2.81,5.67,5.99,7.78,9.48 c7.15,11.77,8.69,26.81,5.56,42.01c-3.11,15.04-10.8,30.33-22.19,42.8L68.52,106.27L68.52,106.27L68.52,106.27L68.52,106.27z"/></g></svg>